<svg width="64" height="64" fill="none" xmlns="http://www.w3.org/2000/svg"><path fill-rule="evenodd" clip-rule="evenodd" d="M28.38 13.924a5.441 5.441 0 0 1 7.24 0c1.597 1.405 4.008 3.625 7.294 6.912 3.452 3.452 5.944 6.428 7.548 8.5 2.065 2.668.008 6.164-3.09 6.164H42v10.563c0 2.232-1.36 4.584-4.024 5.024-1.378.227-3.316.413-5.976.413s-4.598-.186-5.976-.413C23.36 50.647 22 48.295 22 46.063V35.5h-5.371c-3.099 0-5.156-3.496-3.09-6.164 1.603-2.072 4.095-5.048 7.547-8.5 3.286-3.287 5.697-5.507 7.294-6.912z" fill="#01B96B"/></svg>