<svg width="64" height="64" fill="none" xmlns="http://www.w3.org/2000/svg"><path fill-rule="evenodd" clip-rule="evenodd" d="M34.816 8.012l2.824.499a.803.803 0 0 1 .652.922l-.56 3.362a.803.803 0 0 1-.648.658v1.62c0 .173.055.34.158.48l3.517 4.733c3.378-2.274 9.705-6.442 9.705-5.75 0 6.005-3.59 8.02-8.018 8.021l1.42 1.91a.815.815 0 0 1 .156.533l-.23 3.459a.803.803 0 0 1-.185.46l-.985 1.182a.803.803 0 0 0-.186.514v3.912a.803.803 0 0 1-.253.584l-4.044 3.807a.803.803 0 0 0-.253.584v.735a5.59 5.59 0 0 1 .536 2.397v4.55c0 .59-.48 1.07-1.07 1.07-.172 0-.344.004-.517.012a5.354 5.354 0 0 1-10.207 0 11.023 11.023 0 0 0-.516-.012 1.07 1.07 0 0 1-1.07-1.07v-4.55c0-.857.192-1.67.535-2.396v-.736a.803.803 0 0 0-.253-.584l-4.044-3.806a.803.803 0 0 1-.252-.585v-3.912a.803.803 0 0 0-.186-.514l-.985-1.182a.803.803 0 0 1-.185-.46l-.23-3.46a.803.803 0 0 1 .156-.531l1.42-1.91C16.588 22.556 13 20.54 13 14.536c0-.571 3.237 1.343 9.71 5.743l3.511-4.727a.802.802 0 0 0 .159-.479v-1.62a.803.803 0 0 1-.647-.658l-.56-3.362a.803.803 0 0 1 .652-.922l2.824-.499a.802.802 0 0 1 .942.79v3.86c0 .35-.223.648-.535.758v3.579c0 .14.036.277.105.398l.734 1.284c.143.25.409.404.697.404h2.28a.803.803 0 0 0 .696-.404l.734-1.284a.802.802 0 0 0 .106-.398v-3.58a.803.803 0 0 1-.534-.756v-3.86a.803.803 0 0 1 .942-.79z" fill="#FFD300"/></svg>